<svg width="14" height="14" viewBox="0 0 14 14"  stroke="#000" stroke-width="1" fill="none" xmlns="http://www.w3.org/2000/svg">
<path d="M6.41666 2.33398H2.33333C2.02391 2.33398 1.72717 2.4569 1.50837 2.67569C1.28958 2.89449 1.16666 3.19123 1.16666 3.50065V11.6673C1.16666 11.9767 1.28958 12.2735 1.50837 12.4923C1.72717 12.7111 2.02391 12.834 2.33333 12.834H10.5C10.8094 12.834 11.1062 12.7111 11.325 12.4923C11.5437 12.2735 11.6667 11.9767 11.6667 11.6673V7.58398" stroke-linecap="round" stroke-linejoin="round"/>
<path d="M10.7917 1.45814C11.0237 1.22608 11.3385 1.0957 11.6667 1.0957C11.9949 1.0957 12.3096 1.22608 12.5417 1.45814C12.7737 1.6902 12.9041 2.00495 12.9041 2.33314C12.9041 2.66133 12.7737 2.97608 12.5417 3.20814L7 8.74981L4.66666 9.33314L5.25 6.99981L10.7917 1.45814Z" stroke-linecap="round" stroke-linejoin="round"/>
</svg>
